<svg xmlns="http://www.w3.org/2000/svg" viewBox="0 0 352.99 80"><defs><style>.cls-1{fill:#4d4d4f;}.cls-2{fill:#929497;}.cls-3{fill:#626366;}.cls-4{fill:#00adee;fill-rule:evenodd;}</style></defs><title>Asset 2</title><g id="Layer_2" data-name="Layer 2"><g id="Layer_10" data-name="Layer 10"><path class="cls-1" d="M135.41,59.26V39.43h8.39a6.93,6.93,0,0,1,5.36,2A6.4,6.4,0,0,1,150.74,46V46a6.72,6.72,0,0,1-1.05,3.86,6.19,6.19,0,0,1-2.89,2.28l4.49,7.08h-4.73l-3.94-6.35h-3.18v6.35Zm4-10.19h4.1a3.24,3.24,0,0,0,2.29-.77,2.65,2.65,0,0,0,.82-2v0a2.64,2.64,0,0,0-.84-2.11,3.44,3.44,0,0,0-2.34-.73h-4v5.7ZM158,59.53a5,5,0,0,1-3.45-1.23,4.32,4.32,0,0,1-1.38-3.4v-.06a4.36,4.36,0,0,1,1.53-3.62A6.42,6.42,0,0,1,158.79,50a9.6,9.6,0,0,1,3.43.63v-.25a2.7,2.7,0,0,0-.76-2.07,3.21,3.21,0,0,0-2.25-.71,10.55,10.55,0,0,0-3.88.83l-1-3.29a13.36,13.36,0,0,1,2.53-.92,12.76,12.76,0,0,1,2.93-.3,6.18,6.18,0,0,1,4.75,1.7,6.88,6.88,0,0,1,1.52,4.84v8.81H162.2V57.61A5.28,5.28,0,0,1,158,59.53Zm1.21-3a3.37,3.37,0,0,0,2.25-.74,2.39,2.39,0,0,0,.87-1.91v-.76a5.55,5.55,0,0,0-2.54-.57,3.35,3.35,0,0,0-2,.54,1.81,1.81,0,0,0-.73,1.55v0a1.66,1.66,0,0,0,.6,1.35,2.41,2.41,0,0,0,1.58.49Zm18.71,3a5.35,5.35,0,0,1-4.38-2.25v2h-4V38.59h4v7.67a5.15,5.15,0,0,1,4.38-2.46,5.62,5.62,0,0,1,2.39.52,6.5,6.5,0,0,1,2,1.48,7.15,7.15,0,0,1,1.43,2.49,9.89,9.89,0,0,1,.54,3.35v0a10.21,10.21,0,0,1-.52,3.36,7,7,0,0,1-1.43,2.48,6.38,6.38,0,0,1-2,1.49,5.9,5.9,0,0,1-2.42.51Zm-1-3.65a3.06,3.06,0,0,0,2.43-1.16,4.45,4.45,0,0,0,1-3v0a4.45,4.45,0,0,0-1-3,3.09,3.09,0,0,0-4.85,0,4.46,4.46,0,0,0-1,3v0a4.48,4.48,0,0,0,1,3,3.07,3.07,0,0,0,2.42,1.16Zm18.74,3.65a5.35,5.35,0,0,1-4.38-2.25v2h-4V38.59h4v7.67a5.13,5.13,0,0,1,4.38-2.46,5.69,5.69,0,0,1,2.39.52,6.46,6.46,0,0,1,2,1.48,7.16,7.16,0,0,1,1.44,2.49,9.89,9.89,0,0,1,.54,3.35v0a10.21,10.21,0,0,1-.53,3.36A6.94,6.94,0,0,1,200,57.53,6.54,6.54,0,0,1,198,59a5.82,5.82,0,0,1-2.41.51Zm-1-3.65A3.07,3.07,0,0,0,197,54.72a4.45,4.45,0,0,0,1-3v0a4.45,4.45,0,0,0-1-3,3.06,3.06,0,0,0-2.43-1.18,3.09,3.09,0,0,0-2.43,1.17,4.5,4.5,0,0,0-1,3v0a4.53,4.53,0,0,0,1,3,3.08,3.08,0,0,0,2.43,1.16ZM205,42.41V38.59h4.21v3.82Zm.12,16.85V44.08h4V59.26Zm12.48.25a4.17,4.17,0,0,1-3-1A4.75,4.75,0,0,1,213.5,55V47.77h-1.68V44.08h1.68V40.21h4v3.87h3.31v3.69H217.5v6.48a1.65,1.65,0,0,0,.31,1.11,1.2,1.2,0,0,0,1,.36,3.78,3.78,0,0,0,2-.54v3.45a5.8,5.8,0,0,1-3.16.88Zm35.31-.25V43.45h-5.58v-4h15.21v4H257V59.26Zm16.46.34a7.44,7.44,0,0,0,3.92-1.06A7.58,7.58,0,0,0,276,55.66a8.14,8.14,0,0,0,1-4v0a8,8,0,0,0-1-4,7.28,7.28,0,0,0-2.72-2.84,7.38,7.38,0,0,0-3.88-1.05,7.58,7.58,0,0,0-3,.62A7.41,7.41,0,0,0,264,46.11a8,8,0,0,0-1.59,2.52,8.09,8.09,0,0,0-.58,3.06v.06a8.14,8.14,0,0,0,1,4,7.4,7.4,0,0,0,6.6,3.9Zm.06-3.72a3.32,3.32,0,0,1-2.66-1.23,4.39,4.39,0,0,1-1-3v0a4.47,4.47,0,0,1,1-2.94,3.27,3.27,0,0,1,2.65-1.19A3.34,3.34,0,0,1,272,48.73a4.43,4.43,0,0,1,1.05,3v.06a4.42,4.42,0,0,1-1,2.94,3.27,3.27,0,0,1-2.65,1.19Zm10.45,3.38V44.08h4v3.05q1.33-3.48,4.49-3.33v4.5h-.22A3.84,3.84,0,0,0,285,49.64a6.16,6.16,0,0,0-1.12,4v5.62Zm15.73.25a4.17,4.17,0,0,1-3-1A4.75,4.75,0,0,1,291.51,55V47.77h-1.68V44.08h1.68V40.21h4v3.87h3.31v3.69h-3.31v6.48a1.65,1.65,0,0,0,.31,1.11,1.21,1.21,0,0,0,1,.36,3.77,3.77,0,0,0,2-.54v3.45a5.8,5.8,0,0,1-3.16.88Zm12.64.09a7.36,7.36,0,0,1-3.88-1.05,7.48,7.48,0,0,1-2.73-2.85,8.14,8.14,0,0,1-1-4v-.06a8.28,8.28,0,0,1,.58-3.06,7.8,7.8,0,0,1,1.6-2.52,7.41,7.41,0,0,1,2.43-1.69,7.53,7.53,0,0,1,3-.62,7.42,7.42,0,0,1,3.89,1.05,7.28,7.28,0,0,1,2.72,2.84,8,8,0,0,1,1,4v0a8.15,8.15,0,0,1-1,4,7.51,7.51,0,0,1-2.74,2.88,7.38,7.38,0,0,1-3.91,1.06Zm.05-3.72A3.28,3.28,0,0,0,311,54.69a4.47,4.47,0,0,0,1-2.94v-.06a4.43,4.43,0,0,0-1-3,3.36,3.36,0,0,0-2.66-1.22,3.26,3.26,0,0,0-2.65,1.19,4.42,4.42,0,0,0-1,2.94v0a4.44,4.44,0,0,0,1,3,3.35,3.35,0,0,0,2.66,1.23Zm10.54-13.47V38.59H323v3.82ZM319,59.26V44.08h4V59.26Zm12.67.27A8.85,8.85,0,0,1,328.5,59a9.14,9.14,0,0,1-2.92-1.71l1.71-2.83a7.33,7.33,0,0,0,4.43,1.81,2.1,2.1,0,0,0,1.27-.31,1,1,0,0,0,.42-.83V55a.92.92,0,0,0,0-.29.64.64,0,0,0-.15-.25,1.47,1.47,0,0,0-.21-.22,1.52,1.52,0,0,0-.31-.2l-.35-.16-.42-.17-.44-.15-.49-.16-.51-.16c-.46-.14-.86-.29-1.2-.43a6.48,6.48,0,0,1-1.11-.6,4.09,4.09,0,0,1-1-.83,3.77,3.77,0,0,1-.64-1.16,4.4,4.4,0,0,1-.26-1.54v0a4.44,4.44,0,0,1,1.47-3.53,5.33,5.33,0,0,1,3.67-1.28,8.59,8.59,0,0,1,2.73.46,9.23,9.23,0,0,1,2.52,1.29l-1.52,3a7.62,7.62,0,0,0-3.8-1.41,1.77,1.77,0,0,0-1.09.29.91.91,0,0,0-.39.75v.06a.89.89,0,0,0,.36.67,3.37,3.37,0,0,0,.81.49c.3.13.72.29,1.26.49l.43.16c.47.16.87.32,1.21.47a8.1,8.1,0,0,1,1.13.61,4.27,4.27,0,0,1,1,.84,4.17,4.17,0,0,1,.92,2.59v0a4.47,4.47,0,0,1-1.49,3.65,5.9,5.9,0,0,1-3.9,1.24Zm14.91.07a6.91,6.91,0,0,1-5.27-2.2,7.91,7.91,0,0,1-2.08-5.65v-.06a9,9,0,0,1,.88-3.95,7.21,7.21,0,0,1,2.48-2.87,6.38,6.38,0,0,1,3.61-1.07,6.67,6.67,0,0,1,3,.68,5.67,5.67,0,0,1,2.15,1.84,8.31,8.31,0,0,1,1.23,2.62A11.11,11.11,0,0,1,353,52c0,.22,0,.6-.05,1.13h-9.8a3.81,3.81,0,0,0,1.2,2.22,3.42,3.42,0,0,0,2.25.76,4.24,4.24,0,0,0,1.79-.37A5.87,5.87,0,0,0,350,54.59l2.28,2.18a6.78,6.78,0,0,1-5.75,2.83Zm-3.43-9.12h6a4.17,4.17,0,0,0-1-2.35,2.57,2.57,0,0,0-2-.87,2.64,2.64,0,0,0-2,.86A4.43,4.43,0,0,0,343.1,50.48Z"/><path class="cls-2" d="M245.3,58,241,53.3a25.66,25.66,0,0,0,1.88-3.11c.58-1.11,1.14-2.3,1.68-3.56l-2.29-1.14q-.67,1.66-1.41,3.15c-.49,1-1,1.9-1.55,2.76l-5.62-6.18A11.07,11.07,0,0,0,238,42.55,6.51,6.51,0,0,0,239,35.93,6.07,6.07,0,0,0,237.79,34a5.83,5.83,0,0,0-1.88-1.29,6,6,0,0,0-2.39-.47,6.9,6.9,0,0,0-2.67.49,6.06,6.06,0,0,0-2,1.35,6,6,0,0,0-1.32,2,6.41,6.41,0,0,0-.48,2.48,7.09,7.09,0,0,0,.6,2.94,13.74,13.74,0,0,0,1.87,2.94,11.25,11.25,0,0,0-4.4,3.11,7.06,7.06,0,0,0-1.55,4.59,7.8,7.8,0,0,0,.58,3.06,7,7,0,0,0,1.62,2.37,7.16,7.16,0,0,0,2.46,1.51,8.63,8.63,0,0,0,3.08.54,8.92,8.92,0,0,0,4.4-1.09,13,13,0,0,0,3.65-3l3.87,4.29L245.3,58Zm-8.4-19.61a4.1,4.1,0,0,1-1.2,3,9.62,9.62,0,0,1-3.55,2.08A17.64,17.64,0,0,1,231,42.05a8.8,8.8,0,0,1-.76-1.23,5.25,5.25,0,0,1-.4-1.1,5.11,5.11,0,0,1-.12-1.14,3.93,3.93,0,0,1,1-2.77,3.52,3.52,0,0,1,2.7-1.1,3.27,3.27,0,0,1,2.5,1,3.7,3.7,0,0,1,1,2.67Zm.7,15.21a11.53,11.53,0,0,1-2.87,2.52,6.2,6.2,0,0,1-3.28.93,5.39,5.39,0,0,1-2.08-.38,4.7,4.7,0,0,1-2.69-2.65,5.32,5.32,0,0,1,.76-5.23A8,8,0,0,1,231,46.32Z"/><path class="cls-3" d="M138.11,70.25h2.07v-.58h-4.77v.58h2.07v5.62h.63V70.25Zm9.5,2.69h3v-.58h-3V70.25h3.22v-.58H147v6.2h4v-.58h-3.32V72.94Zm15,1.58a2.5,2.5,0,0,1-.38.45,2,2,0,0,1-.44.29,1.68,1.68,0,0,1-.47.14,2.72,2.72,0,0,1-.49,0,2.43,2.43,0,0,1-1.87-.81,2.58,2.58,0,0,1-.5-.85,2.88,2.88,0,0,1-.18-1,2.92,2.92,0,0,1,.18-1,2.58,2.58,0,0,1,.5-.85,2.48,2.48,0,0,1,.8-.59,2.62,2.62,0,0,1,1.07-.22,2.07,2.07,0,0,1,.49.07,2.34,2.34,0,0,1,.46.19,1.7,1.7,0,0,1,.38.26,1.39,1.39,0,0,1,.26.3l.55-.41a2.32,2.32,0,0,0-1-.76,3.18,3.18,0,0,0-1.16-.22,3.35,3.35,0,0,0-1.28.24,3,3,0,0,0-1,.68,3.16,3.16,0,0,0-.67,1,3.5,3.5,0,0,0,0,2.6,3.16,3.16,0,0,0,.67,1,3,3,0,0,0,1,.68,3.36,3.36,0,0,0,1.28.25,2.86,2.86,0,0,0,.73-.09,3,3,0,0,0,.64-.24,2.28,2.28,0,0,0,.53-.37,2,2,0,0,0,.39-.44l-.51-.37ZM170,75.87h.63V72.94H174v2.93h.63v-6.2H174v2.69h-3.38V69.67H170v6.2ZM183,69.67h-.78v6.2h.63v-5.3h0l3.7,5.3h.78v-6.2h-.63v5.25h0L183,69.67Zm17.9,3.1a3.24,3.24,0,0,0-.25-1.3,3.16,3.16,0,0,0-.67-1,3,3,0,0,0-1-.68,3.53,3.53,0,0,0-2.56,0,3,3,0,0,0-1,.68,3.16,3.16,0,0,0-.67,1,3.5,3.5,0,0,0,0,2.6,3.16,3.16,0,0,0,.67,1,3,3,0,0,0,1,.68,3.4,3.4,0,0,0,2.56,0,3,3,0,0,0,1-.68,3.16,3.16,0,0,0,.67-1,3.24,3.24,0,0,0,.25-1.3Zm-.68,0a2.88,2.88,0,0,1-.18,1,2.42,2.42,0,0,1-.5.85,2.53,2.53,0,0,1-3.74,0,2.58,2.58,0,0,1-.5-.85,2.88,2.88,0,0,1-.18-1,2.92,2.92,0,0,1,.18-1,2.58,2.58,0,0,1,.5-.85,2.48,2.48,0,0,1,.8-.59,2.71,2.71,0,0,1,2.14,0,2.48,2.48,0,0,1,.8.59,2.42,2.42,0,0,1,.5.85,2.92,2.92,0,0,1,.18,1Zm8.41-3.1H208v6.2h3.51v-.58h-2.88V69.67Zm15.62,3.1a3.24,3.24,0,0,0-.25-1.3,3,3,0,0,0-.68-1,3,3,0,0,0-1-.68,3.53,3.53,0,0,0-2.56,0,3,3,0,0,0-1.7,1.71,3.5,3.5,0,0,0,0,2.6,3,3,0,0,0,1.7,1.71,3.4,3.4,0,0,0,2.56,0,3,3,0,0,0,1-.68,3,3,0,0,0,.68-1,3.24,3.24,0,0,0,.25-1.3Zm-.68,0a2.88,2.88,0,0,1-.18,1,2.58,2.58,0,0,1-.5.85,2.53,2.53,0,0,1-3.74,0,2.42,2.42,0,0,1-.5-.85,2.88,2.88,0,0,1-.18-1,2.92,2.92,0,0,1,.18-1,2.42,2.42,0,0,1,.5-.85,2.48,2.48,0,0,1,.8-.59,2.71,2.71,0,0,1,2.14,0,2.48,2.48,0,0,1,.8.59,2.58,2.58,0,0,1,.5.85,2.92,2.92,0,0,1,.18,1Zm12.82-2.42a2.63,2.63,0,0,0-1-.63,3.55,3.55,0,0,0-1.28-.2,3.4,3.4,0,0,0-1.29.24,3.09,3.09,0,0,0-1,.68,3,3,0,0,0-.68,1,3.64,3.64,0,0,0,0,2.6,3,3,0,0,0,.68,1,3.09,3.09,0,0,0,1,.68,3.41,3.41,0,0,0,1.29.25,4.74,4.74,0,0,0,1.19-.17,4.32,4.32,0,0,0,1.15-.46v-3h-2.11v.58h1.48V75a3.11,3.11,0,0,1-.79.32,3.52,3.52,0,0,1-.92.12,2.44,2.44,0,0,1-1.07-.22,2.38,2.38,0,0,1-.8-.59,2.6,2.6,0,0,1-.51-.85,3.12,3.12,0,0,1-.17-1,3.16,3.16,0,0,1,.17-1,2.6,2.6,0,0,1,.51-.85,2.38,2.38,0,0,1,.8-.59,2.59,2.59,0,0,1,1.07-.22,2.46,2.46,0,0,1,1,.2,2.2,2.2,0,0,1,.75.52l.47-.46Zm9.59,2.85,2.32-3.53h-.79l-1.85,2.93-1.84-2.93H243l2.32,3.53v2.67h.63V73.2Zm16.25-2.93a2.08,2.08,0,0,0-.8-.59,2.59,2.59,0,0,0-.95-.16,2.64,2.64,0,0,0-.74.1,2,2,0,0,0-.64.32,1.69,1.69,0,0,0-.46.56,1.71,1.71,0,0,0-.17.77,1.68,1.68,0,0,0,.14.72,1.4,1.4,0,0,0,.36.47,1.88,1.88,0,0,0,.51.31A5.77,5.77,0,0,0,260,73l.59.19a3,3,0,0,1,.51.24,1.33,1.33,0,0,1,.35.36,1,1,0,0,1,.14.54,1,1,0,0,1-.12.48,1.34,1.34,0,0,1-.31.36,1.56,1.56,0,0,1-.43.21,1.5,1.5,0,0,1-.47.08,1.65,1.65,0,0,1-.85-.21,1.53,1.53,0,0,1-.56-.54l-.57.41a2.09,2.09,0,0,0,.87.7,2.82,2.82,0,0,0,1.08.22,2,2,0,0,0,.73-.13,1.9,1.9,0,0,0,.66-.35,1.7,1.7,0,0,0,.47-.56,1.61,1.61,0,0,0,.18-.76,1.51,1.51,0,0,0-.23-.88,1.83,1.83,0,0,0-.59-.52,3.56,3.56,0,0,0-.77-.32,6.75,6.75,0,0,1-.76-.26,2.07,2.07,0,0,1-.59-.38.89.89,0,0,1-.23-.66,1,1,0,0,1,.11-.5,1.14,1.14,0,0,1,.3-.35,1.3,1.3,0,0,1,.43-.2,1.85,1.85,0,0,1,.48-.07,1.36,1.36,0,0,1,1.2.61l.55-.43Zm13.26,2.5a3.42,3.42,0,0,0-.25-1.3,3,3,0,0,0-.68-1,3.09,3.09,0,0,0-1-.68,3.53,3.53,0,0,0-2.56,0,3,3,0,0,0-1,.68,3.19,3.19,0,0,0-.68,1,3.64,3.64,0,0,0,0,2.6,3.19,3.19,0,0,0,.68,1,3,3,0,0,0,1,.68,3.4,3.4,0,0,0,2.56,0,3.09,3.09,0,0,0,1-.68,3,3,0,0,0,.68-1,3.42,3.42,0,0,0,.25-1.3Zm-.69,0a2.88,2.88,0,0,1-.17,1,2.77,2.77,0,0,1-.5.85,2.61,2.61,0,0,1-2.94.59,2.38,2.38,0,0,1-.8-.59,2.42,2.42,0,0,1-.5-.85,2.88,2.88,0,0,1-.18-1,2.92,2.92,0,0,1,.18-1,2.42,2.42,0,0,1,.5-.85,2.38,2.38,0,0,1,.8-.59,2.69,2.69,0,0,1,2.13,0,2.42,2.42,0,0,1,.81.59,2.77,2.77,0,0,1,.5.85,2.91,2.91,0,0,1,.17,1Zm8.41-3.1h-.63v6.2h3.52v-.58h-2.89V69.67Zm14,0h-.63v3.82a2.78,2.78,0,0,1-.09.76,2,2,0,0,1-.23.54,1.39,1.39,0,0,1-.33.35,1.57,1.57,0,0,1-.36.19,1.54,1.54,0,0,1-.35.1l-.28,0-.29,0a1.69,1.69,0,0,1-.35-.1,1.51,1.51,0,0,1-.35-.19,1.39,1.39,0,0,1-.33-.35,2,2,0,0,1-.23-.54,2.78,2.78,0,0,1-.09-.76V69.67h-.63v3.89a4,4,0,0,0,.09.82,2.38,2.38,0,0,0,.35.8,2.17,2.17,0,0,0,.69.61,2.8,2.8,0,0,0,2.27,0,2.1,2.1,0,0,0,.7-.61,2.18,2.18,0,0,0,.34-.8,4.07,4.07,0,0,0,.1-.82V69.67Zm9.39.58h2.08v-.58h-4.78v.58h2.07v5.62h.63V70.25Zm9.51-.58h-.63v6.2h.63v-6.2Zm13.55,3.1a3.42,3.42,0,0,0-.24-1.3,3,3,0,0,0-.68-1,3.09,3.09,0,0,0-1-.68,3.39,3.39,0,0,0-1.28-.24,3.44,3.44,0,0,0-1.29.24,3.09,3.09,0,0,0-1,.68,3.19,3.19,0,0,0-.68,1,3.64,3.64,0,0,0,0,2.6,3.19,3.19,0,0,0,.68,1,3.09,3.09,0,0,0,1,.68,3.45,3.45,0,0,0,1.29.25,3.39,3.39,0,0,0,1.28-.25,3.09,3.09,0,0,0,1-.68,3,3,0,0,0,.68-1,3.42,3.42,0,0,0,.24-1.3Zm-.68,0a3.12,3.12,0,0,1-.17,1,2.6,2.6,0,0,1-.51.85,2.29,2.29,0,0,1-.8.59,2.69,2.69,0,0,1-2.13,0,2.38,2.38,0,0,1-.8-.59,2.6,2.6,0,0,1-.51-.85,3.12,3.12,0,0,1-.17-1,3.16,3.16,0,0,1,.17-1,2.6,2.6,0,0,1,.51-.85,2.38,2.38,0,0,1,.8-.59,2.69,2.69,0,0,1,2.13,0,2.29,2.29,0,0,1,.8.59,2.6,2.6,0,0,1,.51.85,3.16,3.16,0,0,1,.17,1Zm8.57-3.1h-.79v6.2h.63v-5.3h0l3.69,5.3h.79v-6.2h-.63v5.25h0l-3.69-5.25Zm15.34.6a2,2,0,0,0-.8-.59,2.82,2.82,0,0,0-1.68-.06,2.08,2.08,0,0,0-.65.32,1.55,1.55,0,0,0-.45.56,1.59,1.59,0,0,0-.17.77,1.69,1.69,0,0,0,.13.72,1.4,1.4,0,0,0,.36.47,1.88,1.88,0,0,0,.51.31,5.14,5.14,0,0,0,.59.22l.58.19a3,3,0,0,1,.51.24,1.23,1.23,0,0,1,.36.36,1,1,0,0,1,.13.54,1,1,0,0,1-.12.48,1.19,1.19,0,0,1-.31.36,1.5,1.5,0,0,1-.42.21,1.66,1.66,0,0,1-1.32-.13,1.56,1.56,0,0,1-.57-.54l-.56.41a2.09,2.09,0,0,0,.87.7,2.82,2.82,0,0,0,1.08.22,2.08,2.08,0,0,0,.73-.13,2,2,0,0,0,.65-.35,1.73,1.73,0,0,0,.48-.56,1.61,1.61,0,0,0,.18-.76,1.44,1.44,0,0,0-.24-.88,1.73,1.73,0,0,0-.59-.52,3.47,3.47,0,0,0-.76-.32,6.94,6.94,0,0,1-.77-.26,1.88,1.88,0,0,1-.58-.38.89.89,0,0,1-.24-.66,1.12,1.12,0,0,1,.11-.5,1,1,0,0,1,.31-.35,1.17,1.17,0,0,1,.42-.2,2,2,0,0,1,.48-.07,1.34,1.34,0,0,1,1.2.61Z"/><path class="cls-4" d="M87.2,55.35a74.5,74.5,0,0,0-10.73,9.07L71.3,60.08c-.21-13.34,3.59-11,5.79-16.24-2.2.6-4.17,3.56-5.69,5-10.26-7.49-9.69-6.86-9.54-13-3.49,2.16,1,3-3.47,7a60.53,60.53,0,0,1-6.26,4.48c-3.67-2.5-7.36-5.34-8.91-8.9l-1.12-2.3c0,3.87.92,3.12-4.4,7.2C35.39,45,33.25,46.49,31.23,48L27,44.91c1,6.18,4.49.56,3,14.1-.32,2.91-6,7.94-8.53,9.52l-7.31-3.11C17.49,52.2,29.94,35.08,45.87,32.64,64.19,29.83,83.6,42.84,87.2,55.35Zm26.54,24.28c5.11-1,7.57-5-1.39-6.45C99.25,71,99.47,66.06,105.67,62c6,1.41,17.41-2.28,18.73-5.64,3.48-20.86-16.26-27.55-25.15-22.25-2.71-12.32-10.53-28.48-20-32.62,0,17.32,13.9,33.33,16.67,34.76-3.78,4.45-5,10.81-3.81,13.83-29.49-43.9-78-21.51-83.25,4.86a23.4,23.4,0,0,0-.33,6.25,6.34,6.34,0,0,0-6.63.94c-2.67,2.39-2.51,6.92.35,10.1s7.35,3.81,10,1.42a5.5,5.5,0,0,0,.73-.8,18,18,0,0,1-7-1.33c-2-1,6.14-2.31,7.91-4.35a3.26,3.26,0,0,0,.95.67c15.36,7.06,33.82,10.68,52,5.9,5.9-1.55,10.36-8.26,17.62-14,2.66-2.09,6.86-5.43,11.84-3.42,1,.41,3.84,3.17,4.31,3.74,1.72,2.07,1.44,3.14.81,5.76-7.06,2.39-15.18,4.65-20.34,8.62.55.8,2.16,2,3,3a2.5,2.5,0,0,1,.64,2.45l29-.23ZM13,72.85a7,7,0,0,0,3-.77c1.41,1.88,2.15,2.71,2.1,4.29A22.31,22.31,0,0,1,13,72.85Zm17.31,6.92c.38-.76.29-1.72-.61-2.94,17,2.22,24.59,2.48,41.13-.15C72.69,77.76,72.36,79,72.32,80l-5.64,0H35a45.46,45.46,0,0,1-4.64-.23Zm10.25-6.36c-.29-3.56-6.92-8.45-9.71-10.71L23,69.06a62.74,62.74,0,0,0,17.55,4.35Zm34.6-7.51a33.73,33.73,0,0,0-4.63-4.53c-1.68.72-.07-.13-1.78,1.08-.4.28-1,.84-1.6,1.26C61.5,68,60,68.16,59.93,73.11c9.38-1.32,10.6-2.94,15.23-7.21Zm-33,7.61C47,74.88,58.45,74.8,58.76,73c.29-1.63-1.26-5.72-7-9.08-3,1.44-9.1,6.17-9.58,9.6Zm27.7-23.63c-2.69-2.19-5.67-5.24-9-6.73-2.66,1.6-5.44,3.8-7.92,5.51-.17,2.41-.67,11-.13,12.81s5.33,5.36,6.86,6l5-4.11c1.57-1.22,3.85-3.22,5-4.23l.22-9.22ZM50.51,62.69c.17-3.35,1.05-11.65-.26-14.26-.41-.83-6.35-6.13-7.36-6.73-4.35,2.23-7.23,6.16-11.11,7.9l-.28,12c3.8,2.44,7.7,6.63,10.06,7.88,3.47-1.94,5.2-4.69,8.95-6.76Zm44.36-4.93a1.61,1.61,0,1,1-1.65,1.57,1.61,1.61,0,0,1,1.65-1.57Zm19-18.11a2.5,2.5,0,1,1-2.44,2.5,2.47,2.47,0,0,1,2.44-2.5ZM100.5,30.71c-.4-1.3-.75-4.4-2-7.24.69-4.41-3-15,2.94-23.47C108.15,13.34,101.37,29.51,100.5,30.71Z"/></g></g></svg>